<?xml version="1.0" encoding="UTF-8" standalone="no"?>
<svg
   xmlns="http://www.w3.org/2000/svg"
   xmlns:svg="http://www.w3.org/2000/svg"
   version="1.1"
   width="64"
   height="64"
   viewBox="0 0 64 64">
  <defs>
    <linearGradient id="lensFill" x1="18" y1="16" x2="38" y2="36" gradientUnits="userSpaceOnUse">
      <stop offset="0" style="stop-color:#cfefff;stop-opacity:1"/>
      <stop offset="1" style="stop-color:#4fa6d8;stop-opacity:1"/>
    </linearGradient>
    <linearGradient id="handleFill" x1="37" y1="39" x2="54" y2="56" gradientUnits="userSpaceOnUse">
      <stop offset="0" style="stop-color:#8d8f95;stop-opacity:1"/>
      <stop offset="1" style="stop-color:#3f434a;stop-opacity:1"/>
    </linearGradient>
  </defs>
  <path d="M 28,10 C 17.50659,10 9,18.50659 9,29 9,39.49341 17.50659,48 28,48 32.44512,48 36.53283,46.46999 39.76758,43.91016 L 50.87891,55.02148 C 52.05048,56.19305 53.94952,56.19305 55.12109,55.02148 56.29266,53.84991 56.29266,51.95087 55.12109,50.7793 L 44.00977,39.66797 C 46.56932,36.43335 48,32.34525 48,28 48,17.50659 39.49341,9 29,9 Z"
     style="fill:#000000;fill-opacity:0.2"/>
  <circle cx="27" cy="27" r="17" style="fill:url(#lensFill);stroke:#1d5f86;stroke-width:4;stroke-linejoin:round"/>
  <circle cx="22" cy="21" r="6" style="fill:#ffffff;fill-opacity:0.45;stroke:none"/>
  <rect x="39" y="39" width="18" height="8" rx="4" ry="4" transform="rotate(45 48 43)"
     style="fill:url(#handleFill);stroke:#2e3136;stroke-width:2"/>
</svg>