<?xml version="1.0" encoding="UTF-8" standalone="no"?>
<svg
   xmlns="http://www.w3.org/2000/svg"
   xmlns:svg="http://www.w3.org/2000/svg"
   version="1.1"
   width="64"
   height="64"
   viewBox="0 0 64 64">
  <defs>
    <linearGradient id="topFill" x1="16" y1="14" x2="40" y2="26" gradientUnits="userSpaceOnUse">
      <stop offset="0" style="stop-color:#e9f7ff;stop-opacity:1"/>
      <stop offset="1" style="stop-color:#8fd3f4;stop-opacity:1"/>
    </linearGradient>
    <linearGradient id="leftFill" x1="13" y1="23" x2="30" y2="50" gradientUnits="userSpaceOnUse">
      <stop offset="0" style="stop-color:#58bbdf;stop-opacity:1"/>
      <stop offset="1" style="stop-color:#167aa4;stop-opacity:1"/>
    </linearGradient>
    <linearGradient id="rightFill" x1="34" y1="22" x2="51" y2="50" gradientUnits="userSpaceOnUse">
      <stop offset="0" style="stop-color:#4b9ec7;stop-opacity:1"/>
      <stop offset="1" style="stop-color:#0d587d;stop-opacity:1"/>
    </linearGradient>
    <linearGradient id="accentFill" x1="40" y1="16" x2="55" y2="31" gradientUnits="userSpaceOnUse">
      <stop offset="0" style="stop-color:#ff8a7d;stop-opacity:1"/>
      <stop offset="1" style="stop-color:#c71f1f;stop-opacity:1"/>
    </linearGradient>
  </defs>
  <path d="M 31,9 12,20 12,43 31,55 50,43 50,20 Z"
     style="fill:none;stroke:#1d3f5a;stroke-width:3;stroke-linejoin:round"/>
  <path d="M 31,9 12,20 31,31 50,20 Z"
     style="fill:url(#topFill);stroke:#1d3f5a;stroke-width:3;stroke-linejoin:round"/>
  <path d="M 12,20 12,43 31,55 31,31 Z"
     style="fill:url(#leftFill);stroke:#1d3f5a;stroke-width:3;stroke-linejoin:round"/>
  <path d="M 31,31 31,55 50,43 50,20 Z"
     style="fill:url(#rightFill);stroke:#1d3f5a;stroke-width:3;stroke-linejoin:round"/>
  <path d="M 37,13 46,18 37,23 28,18 Z"
     style="fill:url(#accentFill);stroke:#7a0f0f;stroke-width:2;stroke-linejoin:round"/>
  <path d="M 46,18 46,27 37,32 37,23 Z"
     style="fill:#ef2929;stroke:#7a0f0f;stroke-width:2;stroke-linejoin:round"/>
  <path d="M 37,23 37,32 28,27 28,18 Z"
     style="fill:#cc0000;stroke:#7a0f0f;stroke-width:2;stroke-linejoin:round"/>
</svg>