<svg xmlns="http://www.w3.org/2000/svg" viewBox="0 0 64 64">
  <defs>
    <linearGradient id="sv" x1="0" y1="0" x2="0" y2="1">
      <stop offset="0%" stop-color="#FF8A65"/>
      <stop offset="100%" stop-color="#BF360C"/>
    </linearGradient>
  </defs>
  <rect x="4" y="4" width="56" height="56" rx="8" fill="url(#sv)"/>
  <!-- CPU chip -->
  <rect x="18" y="18" width="28" height="28" rx="4" fill="#FBE9E7" stroke="#FFCCBC" stroke-width="1.5"/>
  <!-- Chip pins -->
  <rect x="24" y="14" width="3" height="6" rx="0.5" fill="#FFCCBC"/>
  <rect x="31" y="14" width="3" height="6" rx="0.5" fill="#FFCCBC"/>
  <rect x="38" y="14" width="3" height="6" rx="0.5" fill="#FFCCBC"/>
  <rect x="24" y="44" width="3" height="6" rx="0.5" fill="#FFCCBC"/>
  <rect x="31" y="44" width="3" height="6" rx="0.5" fill="#FFCCBC"/>
  <rect x="38" y="44" width="3" height="6" rx="0.5" fill="#FFCCBC"/>
  <rect x="14" y="24" width="6" height="3" rx="0.5" fill="#FFCCBC"/>
  <rect x="14" y="31" width="6" height="3" rx="0.5" fill="#FFCCBC"/>
  <rect x="14" y="38" width="6" height="3" rx="0.5" fill="#FFCCBC"/>
  <rect x="44" y="24" width="6" height="3" rx="0.5" fill="#FFCCBC"/>
  <rect x="44" y="31" width="6" height="3" rx="0.5" fill="#FFCCBC"/>
  <rect x="44" y="38" width="6" height="3" rx="0.5" fill="#FFCCBC"/>
  <!-- Chip label -->
  <text x="32" y="36" font-family="Arial,sans-serif" font-weight="bold" font-size="9" fill="#BF360C" text-anchor="middle">CFD</text>
</svg>
