<svg xmlns="http://www.w3.org/2000/svg" viewBox="0 0 64 64">
  <defs>
    <linearGradient id="ms" x1="0" y1="0" x2="0" y2="1">
      <stop offset="0%" stop-color="#26A69A"/>
      <stop offset="100%" stop-color="#00695C"/>
    </linearGradient>
  </defs>
  <rect x="4" y="4" width="56" height="56" rx="8" fill="url(#ms)"/>
  <!-- Triangular mesh -->
  <polygon points="14,50 32,10 50,50" fill="none" stroke="#B2DFDB" stroke-width="1.5"/>
  <line x1="23" y1="30" x2="41" y2="30" stroke="#B2DFDB" stroke-width="1.2"/>
  <line x1="18" y1="40" x2="46" y2="40" stroke="#B2DFDB" stroke-width="1.2"/>
  <line x1="23" y1="30" x2="14" y2="50" stroke="#80CBC4" stroke-width="1"/>
  <line x1="41" y1="30" x2="50" y2="50" stroke="#80CBC4" stroke-width="1"/>
  <line x1="32" y1="10" x2="18" y2="40" stroke="#80CBC4" stroke-width="1"/>
  <line x1="32" y1="10" x2="46" y2="40" stroke="#80CBC4" stroke-width="1"/>
  <line x1="23" y1="30" x2="32" y2="50" stroke="#80CBC4" stroke-width="1"/>
  <line x1="41" y1="30" x2="32" y2="50" stroke="#80CBC4" stroke-width="1"/>
  <!-- Nodes -->
  <circle cx="32" cy="10" r="2.5" fill="#fff"/>
  <circle cx="14" cy="50" r="2.5" fill="#fff"/>
  <circle cx="50" cy="50" r="2.5" fill="#fff"/>
  <circle cx="23" cy="30" r="2" fill="#E0F2F1"/>
  <circle cx="41" cy="30" r="2" fill="#E0F2F1"/>
  <circle cx="32" cy="50" r="2" fill="#E0F2F1"/>
</svg>
