<svg xmlns="http://www.w3.org/2000/svg" viewBox="0 0 64 64">
  <defs>
    <linearGradient id="mr" x1="0" y1="0" x2="0" y2="1">
      <stop offset="0%" stop-color="#26A69A"/>
      <stop offset="100%" stop-color="#00695C"/>
    </linearGradient>
  </defs>
  <rect x="4" y="4" width="56" height="56" rx="8" fill="url(#mr)"/>
  <!-- Coarse outer grid -->
  <line x1="10" y1="10" x2="10" y2="54" stroke="#80CBC4" stroke-width="0.8"/>
  <line x1="28" y1="10" x2="28" y2="54" stroke="#80CBC4" stroke-width="0.8"/>
  <line x1="46" y1="10" x2="46" y2="54" stroke="#80CBC4" stroke-width="0.8"/>
  <line x1="10" y1="10" x2="54" y2="10" stroke="#80CBC4" stroke-width="0.8"/>
  <line x1="10" y1="28" x2="54" y2="28" stroke="#80CBC4" stroke-width="0.8"/>
  <line x1="10" y1="46" x2="54" y2="46" stroke="#80CBC4" stroke-width="0.8"/>
  <!-- Dense refined region (center) -->
  <rect x="24" y="24" width="24" height="24" fill="#004D40" opacity="0.4" rx="2"/>
  <line x1="28" y1="24" x2="28" y2="48" stroke="#E0F2F1" stroke-width="0.8"/>
  <line x1="32" y1="24" x2="32" y2="48" stroke="#E0F2F1" stroke-width="0.8"/>
  <line x1="36" y1="24" x2="36" y2="48" stroke="#E0F2F1" stroke-width="0.8"/>
  <line x1="40" y1="24" x2="40" y2="48" stroke="#E0F2F1" stroke-width="0.8"/>
  <line x1="44" y1="24" x2="44" y2="48" stroke="#E0F2F1" stroke-width="0.8"/>
  <line x1="24" y1="28" x2="48" y2="28" stroke="#E0F2F1" stroke-width="0.8"/>
  <line x1="24" y1="32" x2="48" y2="32" stroke="#E0F2F1" stroke-width="0.8"/>
  <line x1="24" y1="36" x2="48" y2="36" stroke="#E0F2F1" stroke-width="0.8"/>
  <line x1="24" y1="40" x2="48" y2="40" stroke="#E0F2F1" stroke-width="0.8"/>
  <line x1="24" y1="44" x2="48" y2="44" stroke="#E0F2F1" stroke-width="0.8"/>
  <!-- Magnifying glass hint -->
  <circle cx="16" cy="16" r="6" fill="none" stroke="#fff" stroke-width="2"/>
  <line x1="20" y1="20" x2="24" y2="24" stroke="#fff" stroke-width="2" stroke-linecap="round"/>
</svg>
