<svg xmlns="http://www.w3.org/2000/svg" viewBox="0 0 64 64">
  <defs>
    <linearGradient id="esp" x1="0" y1="0" x2="0" y2="1">
      <stop offset="0%" stop-color="#FFD54F"/>
      <stop offset="100%" stop-color="#F9A825"/>
    </linearGradient>
  </defs>
  <rect x="4" y="4" width="56" height="56" rx="8" fill="url(#esp)"/>
  <!-- Electric field from point charge -->
  <circle cx="32" cy="32" r="6" fill="#5D4037"/>
  <text x="32" y="36" font-family="Arial,sans-serif" font-weight="bold" font-size="10" fill="#FFD54F" text-anchor="middle">+</text>
  <!-- Radial field lines -->
  <line x1="32" y1="24" x2="32" y2="12" stroke="#795548" stroke-width="1.5"/>
  <polygon points="30,14 32,8 34,14" fill="#795548"/>
  <line x1="38" y1="27" x2="46" y2="18" stroke="#795548" stroke-width="1.5"/>
  <polygon points="43,21 49,16 46,22" fill="#795548"/>
  <line x1="38" y1="37" x2="46" y2="46" stroke="#795548" stroke-width="1.5"/>
  <polygon points="43,43 49,48 46,42" fill="#795548"/>
  <line x1="32" y1="40" x2="32" y2="52" stroke="#795548" stroke-width="1.5"/>
  <polygon points="30,50 32,56 34,50" fill="#795548"/>
  <line x1="26" y1="27" x2="18" y2="18" stroke="#795548" stroke-width="1.5"/>
  <polygon points="21,21 15,16 18,22" fill="#795548"/>
  <line x1="26" y1="37" x2="18" y2="46" stroke="#795548" stroke-width="1.5"/>
  <polygon points="21,43 15,48 18,42" fill="#795548"/>
</svg>
