<svg xmlns="http://www.w3.org/2000/svg" viewBox="0 0 64 64">
  <defs>
    <linearGradient id="a" x1="0" y1="0" x2="0" y2="1">
      <stop offset="0%" stop-color="#1E88E5"/>
      <stop offset="100%" stop-color="#0D47A1"/>
    </linearGradient>
  </defs>
  <rect x="4" y="4" width="56" height="56" rx="8" fill="url(#a)"/>
  <!-- Document lines -->
  <rect x="14" y="14" width="28" height="3" rx="1.5" fill="#BBDEFB" opacity="0.7"/>
  <rect x="14" y="21" width="22" height="3" rx="1.5" fill="#BBDEFB" opacity="0.5"/>
  <rect x="14" y="28" width="26" height="3" rx="1.5" fill="#BBDEFB" opacity="0.5"/>
  <rect x="14" y="35" width="20" height="3" rx="1.5" fill="#BBDEFB" opacity="0.5"/>
  <rect x="14" y="42" width="24" height="3" rx="1.5" fill="#BBDEFB" opacity="0.5"/>
  <!-- Flow wave accent -->
  <path d="M12 50 C20 44,30 56,38 50 C46 44,52 52,56 48" stroke="#fff" stroke-width="2" fill="none" stroke-linecap="round" opacity="0.8"/>
  <!-- Plus badge -->
  <circle cx="50" cy="50" r="10" fill="#4CAF50"/>
  <rect x="47" y="44" width="6" height="12" rx="1" fill="#fff"/>
  <rect x="44" y="47" width="12" height="6" rx="1" fill="#fff"/>
</svg>
