<svg xmlns="http://www.w3.org/2000/svg" viewBox="0 0 64 64">
  <defs>
    <linearGradient id="th" x1="0" y1="0" x2="0" y2="1">
      <stop offset="0%" stop-color="#FF7043"/>
      <stop offset="100%" stop-color="#BF360C"/>
    </linearGradient>
  </defs>
  <rect x="4" y="4" width="56" height="56" rx="8" fill="url(#th)"/>
  <!-- Thermometer bulb -->
  <circle cx="24" cy="44" r="8" fill="#FFCCBC"/>
  <circle cx="24" cy="44" r="5" fill="#F44336"/>
  <!-- Thermometer tube -->
  <rect x="21" y="12" width="6" height="28" rx="3" fill="#FFCCBC"/>
  <rect x="22.5" y="22" width="3" height="18" rx="1.5" fill="#F44336"/>
  <!-- Heat radiation waves -->
  <path d="M38 18 C42 16,42 22,38 20" stroke="#FFCC80" stroke-width="2" fill="none" stroke-linecap="round"/>
  <path d="M42 22 C46 20,46 26,42 24" stroke="#FFB74D" stroke-width="2" fill="none" stroke-linecap="round"/>
  <path d="M46 26 C50 24,50 30,46 28" stroke="#FFA726" stroke-width="2" fill="none" stroke-linecap="round"/>
  <!-- Plus badge -->
  <circle cx="50" cy="50" r="10" fill="#4CAF50"/>
  <rect x="47" y="44" width="6" height="12" rx="1" fill="#fff"/>
  <rect x="44" y="47" width="12" height="6" rx="1" fill="#fff"/>
</svg>
