<svg xmlns="http://www.w3.org/2000/svg" viewBox="0 0 64 64">
  <defs>
    <linearGradient id="gen" x1="0" y1="0" x2="0" y2="1">
      <stop offset="0%" stop-color="#78909C"/>
      <stop offset="100%" stop-color="#455A64"/>
    </linearGradient>
  </defs>
  <rect x="4" y="4" width="56" height="56" rx="8" fill="url(#gen)"/>
  <!-- Gear shape -->
  <circle cx="32" cy="32" r="12" fill="#B0BEC5"/>
  <circle cx="32" cy="32" r="5" fill="url(#gen)"/>
  <rect x="29" y="16" width="6" height="6" rx="1" fill="#B0BEC5"/>
  <rect x="29" y="42" width="6" height="6" rx="1" fill="#B0BEC5"/>
  <rect x="16" y="29" width="6" height="6" rx="1" fill="#B0BEC5"/>
  <rect x="42" y="29" width="6" height="6" rx="1" fill="#B0BEC5"/>
  <rect x="19" y="19" width="5" height="5" rx="1" fill="#B0BEC5" transform="rotate(45,21.5,21.5)"/>
  <rect x="40" y="19" width="5" height="5" rx="1" fill="#B0BEC5" transform="rotate(45,42.5,21.5)"/>
  <rect x="19" y="40" width="5" height="5" rx="1" fill="#B0BEC5" transform="rotate(45,21.5,42.5)"/>
  <rect x="40" y="40" width="5" height="5" rx="1" fill="#B0BEC5" transform="rotate(45,42.5,42.5)"/>
</svg>
